Coordinates
version=1
nRows=13
nColumns=36
inDegrees=yes

Units are S.I. units (second, meters, Newtons, ...)
If the header above contains a line with 'inDegrees', this indicates whether rotational values are in degrees (yes) or radians (no).

endheader
time	pelvis_tilt	pelvis_list	pelvis_rotation	pelvis_tx	pelvis_ty	pelvis_tz	hip_flexion_r	hip_adduction_r	hip_rotation_r	knee_angle_r	knee_angle_r_beta	ankle_angle_r	subtalar_angle_r	mtp_angle_r	hip_flexion_l	hip_adduction_l	hip_rotation_l	knee_angle_l	knee_angle_l_beta	ankle_angle_l	subtalar_angle_l	mtp_angle_l	lumbar_extension	lumbar_bending	lumbar_rotation	arm_flex_r	arm_add_r	arm_rot_r	elbow_flex_r	pro_sup_r	arm_flex_l	arm_add_l	arm_rot_l	elbow_flex_l	pro_sup_l
      1.53000000	    -14.33136902	      3.18857382	     -4.40436798	     -0.24419335	      0.71362411	     -0.59309424	     70.17158004	      0.67901934	      6.85565006	     90.83939943	      1.58544661	     27.41771600	    -19.45613153	     -7.49996166	     74.23671238	     -6.36853700	     -1.62051806	     87.34336100	      1.52442923	     19.20852720	    -16.63061759	     -7.49996166	    -25.36179760	     -2.92593685	      2.45229258	    177.97851875	   -133.74953841	    123.99186341	    133.70365492	     84.50863173	    145.14136010	   -164.48061022	    146.38202145	    133.08709288	    103.13036698
      1.54000000	    -14.77945649	      3.41265070	     -4.51089019	     -0.23952219	      0.70515950	     -0.59321754	     70.92464435	      0.58253160	      7.16830910	     92.31229024	      1.61115340	     30.40202725	    -17.86426469	     -7.49996315	     75.41783934	     -6.85750688	     -2.10065972	     89.20814265	      1.55697581	     20.52403997	    -15.76911203	     -7.49996315	    -25.18225850	     -2.88206783	      4.50203200	    178.39556235	   -138.61135185	    124.61009285	    133.77536138	     85.57258566	    152.52159620	   -165.35921786	    153.55972579	    128.46852739	    103.98883539
      1.55000000	    -15.23186220	      3.53069431	     -4.75235970	     -0.23518384	      0.69721887	     -0.59309748	     71.57383367	      0.65008531	      7.42226732	     93.52575581	      1.63233237	     32.76354878	    -16.83568967	     -7.49996435	     76.58664461	     -7.54575045	     -2.43180642	     90.99853176	      1.58822399	     21.57826713	    -14.97923630	     -7.49996435	    -24.88495699	     -2.78668923	      6.59829153	    178.89316175	   -142.89961456	    125.89213898	    133.42940053	     86.53819278	    159.33477296	   -166.69907833	    160.06890450	    123.54441241	    104.45849814
      1.56000000	    -15.77370172	      3.74630961	     -5.19042852	     -0.23096014	      0.68987107	     -0.59267613	     72.37044608	      0.87865489	      7.80111085	     94.61472682	      1.65133850	     34.10292746	    -16.67581989	     -7.49996471	     77.74977400	     -8.40625305	     -2.89930509	     92.64152819	      1.61689969	     22.06734601	    -14.75732752	     -7.49996471	    -24.41823847	     -2.88821187	      8.50924466	    179.40813406	   -146.61089211	    128.18716583	    132.70995024	     86.83863647	    165.46604361	   -168.63239388	    165.15533357	    118.68439548	    104.43248398
      1.57000000	    -16.22917572	      3.47868140	     -5.60165325	     -0.22650353	      0.68376594	     -0.59218905	     73.00066744	      1.23223947	      7.58842672	     95.68999951	      1.67010555	     35.73437400	    -15.16755268	     -7.49996565	     78.85981837	     -9.44851641	     -2.84348283	     94.30549810	      1.64594144	     22.90925629	    -13.72204462	     -7.49996565	    -24.27018469	     -2.41690753	     11.42394886	    179.46858023	   -149.97821270	    127.80584690	    132.65406768	     87.76707177	    171.98206851	   -170.20508846	    171.61993768	    113.53495035	    104.81652600
      1.58000000	    -16.91101975	      3.50003816	     -6.24946603	     -0.22172121	      0.67819544	     -0.59086696	     73.99151376	      1.85608611	      7.69570815	     96.68673150	      1.68750181	     36.17182191	    -14.90528294	     -7.49996594	     79.98217332	    -10.68599890	     -3.25352331	     95.70182944	      1.67031202	     23.21912623	    -13.70147411	     -7.49996594	    -23.82126099	     -2.48691982	     13.52863533	    179.68027389	   -152.88213047	    130.00658630	    132.36774469	     88.05552891	    177.17466215	   -172.31289846	    175.71433573	    109.60552966	    104.83537434
      1.59000000	    -17.99655380	      3.09155200	     -6.66659250	     -0.21656264	      0.67148123	     -0.59028563	     75.43026983	      2.36758225	      7.18088425	     97.82007615	      1.70728240	     36.43783888	    -14.52707866	     -7.49996623	     81.76698561	    -11.71230069	     -3.05130483	     97.32072170	      1.69856702	     23.71245960	    -13.87126155	     -7.49996623	    -22.95090412	     -2.02599379	     14.69394746	    179.80533979	   -154.92840256	    132.64877807	    132.29713748	     88.33984379	    179.69522317	   -174.24507550	    178.35124279	    108.42055394	    105.12540826
      1.60000000	    -19.65775417	      2.45506065	     -6.95764911	     -0.21115691	      0.66355209	     -0.59038481	     77.40995029	      2.80372730	      6.35041560	     98.93247419	      1.72669741	     36.85921855	    -13.82945806	     -7.49996689	     84.22050604	    -12.48581075	     -2.42898336	     98.92517067	      1.72656994	     24.32077443	    -14.02634346	     -7.49996689	    -21.17139579	     -1.18245378	     14.64994311	    179.88285822	   -156.16068846	    137.60069077	    131.93872673	     88.84655891	    179.87781717	   -176.23746580	    178.95945480	    109.44858271	    106.07337764
      1.61000000	    -21.50354115	      1.94812378	     -7.24278680	     -0.20577182	      0.65589388	     -0.59073214	     79.48348596	      3.12141955	      5.65494287	     99.86861784	      1.74303620	     37.21189603	    -13.25446269	     -7.49996752	     86.62796028	    -12.99552621	     -1.94093351	    100.24563222	      1.74961634	     25.08402826	    -14.79424243	     -7.49996752	    -19.07919387	     -0.37402211	     14.58657240	    179.91763077	   -157.22595582	    141.99911448	    132.26350433	     89.29891775	    179.92611275	   -177.84382577	    179.32210833	    111.40249941	    107.29568098
      1.62000000	    -23.56489053	      1.51264793	     -7.43038310	     -0.20036084	      0.64896022	     -0.59121763	     81.57147034	      3.35677679	      5.04437663	    100.52852234	      1.75455371	     37.57302444	    -12.85634795	     -7.49996803	     88.95400203	    -13.16874674	     -1.48449924	    101.14392920	      1.76529458	     26.03459761	    -15.93804803	     -7.49996803	    -16.67204024	      0.48226778	     14.30960892	    179.93718002	   -158.20262565	    146.08314592	    133.15944956	     89.69223953	    179.94742907	   -178.97046874	    179.52872378	    114.08149604	    108.69984731
      1.63000000	    -25.80888139	      1.23877457	     -7.52003689	     -0.19488301	      0.64290934	     -0.59185343	     83.67091168	      3.43572844	      4.53271544	    100.95436669	      1.76198609	     38.14845643	    -12.30814546	     -7.49997131	     91.13395139	    -12.92395805	     -1.05199516	    101.64944126	      1.77411743	     26.62578205	    -17.67902002	     -7.49997131	    -13.89476851	      1.22343213	     13.81947401	    179.94968916	   -159.22326409	    149.75726559	    134.40641165	     90.94587933	    179.95931918	   -179.43084493	    179.62175306	    116.86407949	    114.76452336
      1.64000000	    -28.24166623	      1.08968615	     -7.48933422	     -0.18938470	      0.63795858	     -0.59260598	     85.79055927	      3.40023119	      4.07819379	    101.11773450	      1.76483740	     38.43134994	    -12.29842214	     -7.49997160	     93.25821715	    -12.38928341	     -0.56725313	    101.82279987	      1.77714311	     27.70735245	    -18.56362611	     -7.49997160	    -10.82071095	      1.95241068	     13.08128026	    179.95833438	   -160.30935031	    153.23277478	    136.24329411	     91.27276654	    179.96671321	   -179.60170623	    179.69223185	    120.40829533	    115.43118697
      1.65000000	    -30.86377457	      1.10231759	     -7.34502186	     -0.18386026	      0.63439488	     -0.59354723	     87.91214773	      3.23421522	      3.77225291	    100.95945078	      1.76207483	     38.67323825	    -12.36126860	     -7.49997192	     95.35335097	    -11.55444957	     -0.06723665	    101.66409597	      1.77437321	     28.35228688	    -19.36714947	     -7.49997192	     -7.37542143	      2.59896025	     12.19377097	    179.96446103	   -161.56173480	    156.47676342	    138.23317494	     91.63069600	    179.97164954	   -179.66768437	    179.72909902	    124.04876766	    116.13905238
